<?xml version="1.0" encoding="UTF-8"?>
<svg version="1.1" xmlns="http://www.w3.org/2000/svg" width="594" height="338">
<path d="M0 0 C196.02 0 392.04 0 594 0 C594 111.54 594 223.08 594 338 C397.98 338 201.96 338 0 338 C0 226.46 0 114.92 0 0 Z " fill="#FFA1A1" transform="translate(0,0)"/>
<path d="M0 0 C63.69 0 127.38 0 193 0 C193 26.4 193 52.8 193 80 C129.31 80 65.62 80 0 80 C0 53.6 0 27.2 0 0 Z " fill="#FFCCCC" transform="translate(396,7)"/>
<path d="M0 0 C63.69 0 127.38 0 193 0 C193 26.4 193 52.8 193 80 C129.31 80 65.62 80 0 80 C0 53.6 0 27.2 0 0 Z " fill="#FFCCCC" transform="translate(4,7)"/>
<path d="M0 0 C63.69 0 127.38 0 193 0 C193 26.07 193 52.14 193 79 C129.31 79 65.62 79 0 79 C0 52.93 0 26.86 0 0 Z " fill="#FFFEFE" transform="translate(200,254)"/>
<path d="M0 0 C63.69 0 127.38 0 193 0 C193 26.07 193 52.14 193 79 C129.31 79 65.62 79 0 79 C0 52.93 0 26.86 0 0 Z " fill="#FFFFFF" transform="translate(200,172)"/>
<path d="M0 0 C63.69 0 127.38 0 193 0 C193 26.07 193 52.14 193 79 C129.31 79 65.62 79 0 79 C0 52.93 0 26.86 0 0 Z " fill="#FFFFFF" transform="translate(200,90)"/>
<path d="M0 0 C63.69 0 127.38 0 193 0 C193 26.07 193 52.14 193 79 C129.31 79 65.62 79 0 79 C0 52.93 0 26.86 0 0 Z " fill="#FFCCCC" transform="translate(200,8)"/>
<path d="M0 0 C63.36 0 126.72 0 192 0 C192 26.07 192 52.14 192 79 C128.64 79 65.28 79 0 79 C0 52.93 0 26.86 0 0 Z " fill="#FFFEFE" transform="translate(396,254)"/>
<path d="M0 0 C63.36 0 126.72 0 192 0 C192 26.07 192 52.14 192 79 C128.64 79 65.28 79 0 79 C0 52.93 0 26.86 0 0 Z " fill="#FFFEFE" transform="translate(5,254)"/>
<path d="M0 0 C63.36 0 126.72 0 192 0 C192 26.07 192 52.14 192 79 C128.64 79 65.28 79 0 79 C0 52.93 0 26.86 0 0 Z " fill="#FFFFFF" transform="translate(396,172)"/>
<path d="M0 0 C63.36 0 126.72 0 192 0 C192 26.07 192 52.14 192 79 C128.64 79 65.28 79 0 79 C0 52.93 0 26.86 0 0 Z " fill="#FFFFFF" transform="translate(5,172)"/>
<path d="M0 0 C63.36 0 126.72 0 192 0 C192 26.07 192 52.14 192 79 C128.64 79 65.28 79 0 79 C0 52.93 0 26.86 0 0 Z " fill="#FFFFFF" transform="translate(396,90)"/>
<path d="M0 0 C63.36 0 126.72 0 192 0 C192 26.07 192 52.14 192 79 C128.64 79 65.28 79 0 79 C0 52.93 0 26.86 0 0 Z " fill="#FFFFFF" transform="translate(5,90)"/>
<path d="M0 0 C196.02 0 392.04 0 594 0 C594 111.54 594 223.08 594 338 C397.98 338 201.96 338 0 338 C0 226.46 0 114.92 0 0 Z M2 5 C2 114.23 2 223.46 2 336 C196.37 336 390.74 336 591 336 C591 226.77 591 117.54 591 5 C396.63 5 202.26 5 2 5 Z " fill="#FFF5F5" transform="translate(0,0)"/>
</svg>
